Coordinates
version=1
nRows=34
nColumns=38
inDegrees=no

Units are S.I. units (second, meters, Newtons, ...)
If the header above contains a line with 'inDegrees', this indicates whether rotational values are in degrees (yes) or radians (no).

endheader
time	pelvis_tilt	pelvis_list	pelvis_rotation	pelvis_tx	pelvis_ty	pelvis_tz	hip_flexion_r	hip_adduction_r	hip_rotation_r	knee_angle_r	ankle_angle_r	subtalar_angle_r	mtp_angle_r	hip_flexion_l	hip_adduction_l	hip_rotation_l	knee_angle_l	ankle_angle_l	subtalar_angle_l	mtp_angle_l	lumbar_extension	lumbar_bending	lumbar_rotation	arm_flex_r	arm_add_r	arm_rot_r	elbow_flex_r	pro_sup_r	wrist_flex_r	wrist_dev_r	arm_flex_l	arm_add_l	arm_rot_l	elbow_flex_l	pro_sup_l	wrist_flex_l	wrist_dev_l
0.44	0.229963	1.26792	-1.82351	0.784823	0.968734	0.946879	0.292731	-0.167115	0.0223965	1.49867	0.095182	0	0	-0.132873	0.123032	-0.157853	0.315439	0.0309413	0	0	-0.338913	-0.0625167	0.00571757	0.250548	-0.571756	0.0162787	1.48332	0.828376	0	0	0.345145	-0.484719	0.0970687	1.70773	1.04106	0	0
0.45	0.208641	1.26716	-1.79696	0.785359	0.957781	0.948845	0.312309	-0.159375	0.0172187	1.48247	0.115611	0	0	-0.155604	0.117095	-0.150486	0.303765	0.0351673	0	0	-0.342661	-0.0544582	0.00121428	0.251592	-0.571715	0.016077	1.48028	0.831765	0	0	0.350242	-0.48392	0.100575	1.70429	1.04251	0	0
0.46	0.18502	1.26609	-1.7678	0.785916	0.946904	0.950821	0.329022	-0.151484	0.0101219	1.46048	0.138019	0	0	-0.178944	0.110212	-0.143243	0.290997	0.0392082	0	0	-0.347186	-0.0454715	-0.00313486	0.251663	-0.571816	0.0138733	1.47875	0.836759	0	0	0.355675	-0.482842	0.104546	1.7006	1.04404	0	0
0.47	0.160078	1.26487	-1.73681	0.786517	0.936114	0.952741	0.343159	-0.143808	0.00127584	1.43294	0.154643	0	0	-0.202203	0.102475	-0.136241	0.277843	0.043018	0	0	-0.352198	-0.0357163	-0.00796653	0.251599	-0.571593	0.0106688	1.47793	0.843015	0	0	0.360986	-0.4821	0.108734	1.6971	1.04468	0	0
0.48	0.1351	1.26344	-1.70517	0.787145	0.925393	0.954565	0.354565	-0.136988	-0.00961304	1.39972	0.164817	0	0	-0.22545	0.094146	-0.12917	0.264297	0.0463888	0	0	-0.35763	-0.0255678	-0.0135913	0.251743	-0.570771	0.00692623	1.47736	0.852358	0	0	0.365889	-0.481702	0.112677	1.69401	1.04486	0	0
0.49	0.11321	1.26298	-1.67668	0.787732	0.914709	0.956084	0.365247	-0.131665	-0.0213677	1.36167	0.170605	0	0	-0.246576	0.0859099	-0.123911	0.252018	0.0506394	0	0	-0.36193	-0.0161038	-0.0199039	0.252488	-0.569547	0.0037181	1.4769	0.861466	0	0	0.369446	-0.481843	0.115144	1.69231	1.04423	0	0
0.5	0.0939053	1.26335	-1.65079	0.788279	0.904034	0.957285	0.374782	-0.127857	-0.0341548	1.3192	0.174794	0	0	-0.266089	0.0779749	-0.119693	0.240418	0.0556531	0	0	-0.365125	-0.00730754	-0.0266981	0.25361	-0.568254	0.000896495	1.47702	0.869599	0	0	0.372159	-0.482379	0.116682	1.69152	1.04358	0	0
0.51	0.077305	1.26433	-1.62796	0.788793	0.893379	0.958209	0.382694	-0.125561	-0.04762	1.27285	0.178278	0	0	-0.284427	0.0708446	-0.115534	0.229025	0.0595743	0	0	-0.367452	0.000625327	-0.0333947	0.254813	-0.567074	-0.00179286	1.47747	0.87725	0	0	0.374537	-0.482926	0.117745	1.69102	1.04331	0	0
0.52	0.0635893	1.26614	-1.6083	0.789234	0.882692	0.95879	0.389027	-0.124455	-0.0618562	1.22223	0.179795	0	0	-0.301285	0.064534	-0.111671	0.218198	0.0634105	0	0	-0.368635	0.0074437	-0.039988	0.255728	-0.565992	-0.00440418	1.47793	0.885494	0	0	0.376431	-0.483732	0.118501	1.69066	1.04075	0	0
0.53	0.0518949	1.26878	-1.5912	0.789549	0.871936	0.959016	0.39344	-0.123809	-0.0766166	1.1669	0.180083	0	0	-0.316841	0.0589671	-0.107844	0.208081	0.0678761	0	0	-0.368662	0.0132913	-0.0460863	0.256284	-0.565166	-0.00688956	1.47823	0.893806	0	0	0.378033	-0.484422	0.119211	1.69058	1.03993	0	0
0.54	0.0415414	1.27236	-1.57612	0.789781	0.861132	0.958856	0.395997	-0.123716	-0.0924216	1.10705	0.182239	0	0	-0.33078	0.0540955	-0.104024	0.199197	0.0732941	0	0	-0.367509	0.0184647	-0.0515449	0.256809	-0.564795	-0.00876459	1.47923	0.899541	0	0	0.379327	-0.484816	0.119541	1.69079	1.04134	0	0
0.55	0.0332981	1.27677	-1.56401	0.789861	0.850249	0.958293	0.396472	-0.12414	-0.10936	1.04237	0.185617	0	0	-0.343442	0.0501484	-0.100457	0.191131	0.0794408	0	0	-0.365201	0.0225013	-0.0561288	0.256948	-0.56466	-0.0107711	1.48105	0.902901	0	0	0.380514	-0.485259	0.120016	1.69124	1.04317	0	0
0.56	0.0264997	1.2814	-1.55423	0.789794	0.839316	0.957443	0.393664	-0.124696	-0.128013	0.971878	0.187406	0	0	-0.355802	0.0468974	-0.0975431	0.183335	0.0858565	0	0	-0.362473	0.0256159	-0.0598914	0.256967	-0.564508	-0.0133662	1.48236	0.908935	0	0	0.381532	-0.48538	0.120623	1.69132	1.04509	0	0
0.57	0.0212502	1.28612	-1.54646	0.789645	0.82831	0.956326	0.387312	-0.125517	-0.149457	0.895662	0.188281	0	0	-0.368023	0.0443337	-0.0943603	0.175994	0.0922782	0	0	-0.359503	0.0279761	-0.0632158	0.257134	-0.564561	-0.0160024	1.4839	0.915085	0	0	0.382242	-0.485068	0.120703	1.69166	1.04784	0	0
0.58	0.0197014	1.29158	-1.54333	0.789271	0.817161	0.954832	0.37896	-0.126433	-0.172521	0.814786	0.187128	0	0	-0.379104	0.0429851	-0.0920723	0.169724	0.099852	0	0	-0.35549	0.0286211	-0.0658288	0.257138	-0.564715	-0.018016	1.48579	0.918582	0	0	0.382181	-0.484828	0.119695	1.69275	1.04911	0	0
0.59	0.0201234	1.297	-1.54272	0.788665	0.805877	0.953059	0.3671	-0.126107	-0.196514	0.727976	0.184342	0	0	-0.390245	0.042033	-0.0895476	0.163971	0.108398	0	0	-0.351392	0.02818	-0.0678966	0.256788	-0.564621	-0.0201045	1.4881	0.921699	0	0	0.382047	-0.484601	0.11873	1.6939	1.05009	0	0
0.6	0.0248343	1.3029	-1.5472	0.787734	0.794397	0.950897	0.35325	-0.124698	-0.220367	0.636964	0.181943	0	0	-0.400755	0.0420869	-0.0876362	0.159111	0.117756	0	0	-0.34638	0.0257247	-0.0692266	0.255731	-0.563966	-0.0228373	1.48995	0.92642	0	0	0.382052	-0.484907	0.118197	1.69491	1.05169	0	0
0.61	0.0332415	1.30923	-1.55635	0.786546	0.782734	0.948377	0.338759	-0.122587	-0.246555	0.546291	0.17732	0	0	-0.410809	0.0430322	-0.0869938	0.154888	0.127616	0	0	-0.340395	0.021635	-0.0694455	0.254182	-0.563064	-0.0259007	1.49133	0.930273	0	0	0.382453	-0.485353	0.118333	1.69536	1.0533	0	0
0.62	0.0413818	1.31502	-1.56613	0.785126	0.770888	0.945657	0.322017	-0.117548	-0.271217	0.45538	0.169594	0	0	-0.421702	0.0436749	-0.0877012	0.150895	0.137801	0	0	-0.334458	0.017251	-0.0683766	0.252385	-0.562091	-0.0292992	1.49263	0.933966	0	0	0.383313	-0.485386	0.118585	1.69503	1.0557	0	0
0.63	0.0546002	1.32784	-1.58273	0.783301	0.757806	0.942053	0.312233	-0.111017	-0.289474	0.369312	0.165382	0	0	-0.426863	0.0456813	-0.0906332	0.146077	0.148242	0	0	-0.329068	0.0134997	-0.0717782	0.249616	-0.560483	-0.0330959	1.51013	0.939189	0	0	0.366714	-0.48913	0.0986582	1.71868	1.06153	0	0
0.64	0.0680777	1.33397	-1.60076	0.78127	0.74558	0.938741	0.295164	-0.101733	-0.297202	0.286666	0.158482	0	0	-0.437459	0.0478181	-0.0940438	0.143226	0.15849	0	0	-0.321284	0.00678469	-0.0680735	0.248619	-0.559463	-0.0348148	1.51013	0.942984	0	0	0.367722	-0.48801	0.0983812	1.71646	1.06556	0	0
0.65	0.0844474	1.33947	-1.62249	0.77903	0.733173	0.935185	0.277795	-0.0922078	-0.295295	0.212642	0.15034	0	0	-0.448421	0.0505352	-0.0984147	0.141563	0.169228	0	0	-0.313417	-0.000859394	-0.0638348	0.248321	-0.558514	-0.0354703	1.50977	0.947151	0	0	0.368957	-0.487148	0.0983449	1.714	1.06778	0	0
0.66	0.100744	1.3445	-1.64399	0.776764	0.720508	0.931506	0.260716	-0.083633	-0.286708	0.15059	0.138928	0	0	-0.459369	0.0528597	-0.103414	0.141359	0.180126	0	0	-0.30497	-0.00829255	-0.0595892	0.247806	-0.557677	-0.0355802	1.5089	0.950055	0	0	0.370224	-0.486066	0.0989667	1.7106	1.06886	0	0
0.67	0.115272	1.34865	-1.66242	0.774697	0.707563	0.92785	0.245199	-0.077193	-0.277568	0.104994	0.124783	0	0	-0.470593	0.0540938	-0.107919	0.142944	0.190847	0	0	-0.296511	-0.0145652	-0.0564575	0.247086	-0.557369	-0.0348761	1.50763	0.952862	0	0	0.370955	-0.484438	0.0991837	1.70644	1.07175	0	0
0.68	0.125154	1.3509	-1.67445	0.772959	0.694399	0.924368	0.232883	-0.0732994	-0.274984	0.0833004	0.112822	0	0	-0.483253	0.0536037	-0.11079	0.146204	0.201342	0	0	-0.289756	-0.0186064	-0.0552722	0.247152	-0.558225	-0.0326549	1.50702	0.953415	0	0	0.370749	-0.4823	0.0978978	1.70224	1.07677	0	0
0.69	0.127392	1.3515	-1.67717	0.77155	0.681048	0.921139	0.224054	-0.0711411	-0.280075	0.0878514	0.108625	0	0	-0.496705	0.0507658	-0.112687	0.151902	0.211148	0	0	-0.284834	-0.0197534	-0.0557829	0.248071	-0.560125	-0.0293196	1.50697	0.95202	0	0	0.36976	-0.479355	0.0965382	1.69774	1.07739	0	0
0.7	0.122	1.3503	-1.67061	0.770423	0.667445	0.918228	0.214978	-0.0697366	-0.288682	0.109168	0.111267	0	0	-0.511215	0.0456406	-0.114074	0.15978	0.220311	0	0	-0.281953	-0.0181998	-0.0580946	0.249673	-0.562796	-0.0247259	1.50738	0.948441	0	0	0.367383	-0.475575	0.0934644	1.69395	1.07805	0	0
0.71	0.111784	1.34777	-1.65721	0.769498	0.653591	0.915618	0.204676	-0.0689057	-0.303851	0.136553	0.123621	0	0	-0.523599	0.038341	-0.114968	0.170418	0.228063	0	0	-0.280684	-0.0148773	-0.0626575	0.251172	-0.565734	-0.0199556	1.50816	0.944655	0	0	0.363455	-0.471367	0.0883851	1.69169	1.07914	0	0
0.72	0.0954633	1.35104	-1.63417	0.768719	0.640228	0.912715	0.201478	-0.0636908	-0.320423	0.158563	0.135452	0	0	-0.523599	0.0298902	-0.112233	0.198471	0.232439	0	0	-0.275795	-0.00903871	-0.070571	0.252642	-0.568575	-0.0140367	1.5097	0.932454	0	0	0.358843	-0.46667	0.0806318	1.69121	1.08432	0	0
0.73	0.0663105	1.352	-1.60005	0.767365	0.626716	0.910668	0.189297	-0.0540527	-0.333821	0.156404	0.12311	0	0	-0.523599	0.0144056	-0.120097	0.227447	0.238536	0	0	-0.274147	-0.000998594	-0.0763882	0.254319	-0.569499	-0.0112202	1.51045	0.929941	0	0	0.35328	-0.461788	0.0718246	1.69115	1.08881	0	0
0.74	0.028706	1.35176	-1.56085	0.765421	0.613291	0.9092	0.177044	-0.0402914	-0.338711	0.145345	0.0795863	0	0	-0.523599	-0.00216741	-0.130617	0.258235	0.240865	0	0	-0.27444	0.00806884	-0.0785129	0.255906	-0.568911	-0.0105142	1.51064	0.930219	0	0	0.347463	-0.456715	0.0629853	1.69124	1.09128	0	0
0.75	-0.0143096	1.34941	-1.51913	0.763027	0.599724	0.908286	0.164731	-0.0253478	-0.339859	0.136646	0.0167306	0	0	-0.523599	-0.0199402	-0.146796	0.293274	0.240479	0	0	-0.276625	0.0178	-0.0772384	0.256438	-0.56746	-0.011597	1.51117	0.931797	0	0	0.341227	-0.451233	0.053956	1.69175	1.095	0	0
0.76	-0.0546633	1.34472	-1.48184	0.760398	0.585919	0.907972	0.155232	-0.0132519	-0.344532	0.14315	-0.0369555	0	0	-0.523599	-0.0377448	-0.16477	0.33265	0.234256	0	0	-0.280493	0.0267652	-0.0738069	0.255627	-0.565446	-0.0142338	1.51162	0.936133	0	0	0.334916	-0.446126	0.0461026	1.69267	1.10167	0	0
0.77	-0.08919	1.33684	-1.45044	0.757964	0.571928	0.908393	0.150151	-0.00584938	-0.353422	0.173437	-0.0584097	0	0	-0.523599	-0.0557073	-0.181434	0.37694	0.219632	0	0	-0.286943	0.0352185	-0.0700212	0.254198	-0.563533	-0.0175623	1.51156	0.945636	0	0	0.328728	-0.440753	0.0389093	1.69342	1.11733	0	0
